<?xml version="1.0" encoding="utf-8"?>
<!-- Generator: Adobe Illustrator 27.3.1, SVG Export Plug-In . SVG Version: 6.00 Build 0)  -->
<svg version="1.1" id="Слой_1" xmlns="http://www.w3.org/2000/svg" xmlns:xlink="http://www.w3.org/1999/xlink" x="0px" y="0px"
	 viewBox="0 0 575 510" style="enable-background:new 0 0 575 510;" xml:space="preserve">
<g>
	<path d="M287.18,0.77c75.79,0.92,140.42,28.14,192.48,83.46c29.69,31.55,50.2,68.55,60.14,111.02c2.31,9.86,0.07,12.55-9.9,12.56
		c-4.5,0-9.01-0.22-13.5,0.06c-4.94,0.31-7.22-2.01-8.31-6.58c-3.72-15.57-8.93-30.63-16.72-44.67
		c-32.02-57.74-78.55-97.86-142.6-116.08c-12.37-3.52-25.37-5.41-38.21-6.53c-14.53-1.27-29.3-1.97-43.81-0.88
		c-38.26,2.87-73.17,15.83-104.9,37.5c-43.46,29.69-74.16,69.09-91.26,118.95c-1.34,3.92-2.22,7.99-3.31,12
		c-1.08,3.99-3.42,6.3-7.81,6.24c-5.67-0.08-11.33,0.03-17-0.02c-6.55-0.05-9.44-2.75-7.61-8.95c4.4-14.96,8.49-30.16,14.72-44.39
		c16.69-38.12,41.63-70.35,74.01-96.49c26.98-21.78,57.67-36.88,90.8-46.9C238.06,3.91,262.29,0.23,287.18,0.77z"/>
	<path d="M287.8,509.27c-46.33,0.47-89.51-11.17-129.86-33.48c-25.97-14.37-48.01-33.53-67.55-55.91
		c-24.38-27.92-41.38-59.7-52.4-94.88c-1.48-4.74-2.54-9.63-3.52-14.5c-0.94-4.65,1.28-7.6,5.91-7.75c6.49-0.21,13-0.18,19.49-0.04
		c4.3,0.09,6.37,2.81,7.37,6.8c9.72,38.79,29.81,71.66,57.44,100.17c36.24,37.39,80.47,59.58,131.9,65.71
		c67.13,8,128.3-7.38,179.97-52.64c34.24-29.99,59.45-66.18,70.85-110.98c1.87-7.35,4.21-9.01,12-9.02c4.33,0,8.67-0.06,13,0.01
		c7.44,0.11,10.35,3.33,8.11,10.49c-4.76,15.18-9.16,30.59-15.51,45.12c-18,41.14-45.92,74.48-82.21,100.93
		c-38.15,27.8-80.75,43.83-127.63,48.5C306.08,508.68,296.92,508.79,287.8,509.27z"/>
	<path d="M403.29,237.4c19.37-20.32,38.32-40.21,57.32-60.07c1.47-1.54,3.05-3.35,4.94-4.03c5.64-2.02,9.27,1.17,9.26,7.86
		c-0.06,46.15-0.14,92.31-0.21,138.46c-0.01,4,0.11,8,0.08,12c-0.04,5.14-1.81,6.95-6.81,6.99c-6.16,0.04-12.33,0.03-18.5-0.01
		c-5.44-0.03-6.99-1.62-6.99-7.22c0.01-27.16,0.04-54.32,0.06-81.48c0-1.98,0-3.96,0-7.24c-2.99,2.92-5.19,5.02-7.33,7.19
		c-9.26,9.33-18.62,18.57-27.68,28.09c-3.42,3.6-5.65,3.24-8.88-0.25c-10.72-11.59-21.72-22.92-32.61-34.35
		c-0.45,0.14-0.89,0.29-1.34,0.43c-0.09,1.67-0.26,3.34-0.27,5c-0.07,27.33-0.12,54.65-0.19,81.98c-0.02,6.93-0.74,7.66-7.75,7.76
		c-5.5,0.08-11,0.1-16.49,0.1c-6.27,0-7.87-1.64-7.87-8.02c-0.01-47.32-0.01-94.64-0.02-141.96c0-2.67-0.46-5.43,0.1-7.97
		c0.55-2.51,1.72-6.38,3.35-6.8c2.53-0.65,6.57,0.21,8.43,2.02c9.88,9.66,19.27,19.82,28.85,29.78
		C382.75,216.1,392.8,226.51,403.29,237.4z"/>
	<path d="M101.11,255.87c0-25.32,0.1-50.64-0.09-75.96c-0.04-4.78,1.42-6.46,6.29-6.34c13.32,0.31,26.65,0.32,39.98,0.19
		c30.86-0.3,62.67,19.68,76.72,51.43c19.05,43.05-6.41,104.9-64.4,112.16c-17.72,2.22-35.89,0.88-53.86,1.11
		c-4.15,0.05-4.64-2.74-4.63-6.11c0.06-25.49,0.03-50.98,0.03-76.46C101.14,255.87,101.13,255.87,101.11,255.87z M133.3,306
		c6.81,0,13.26,0.28,19.69-0.05c36.91-1.89,56.82-45.86,38.23-75.93c-13.54-21.9-34.2-26.47-57.92-24.21
		C133.3,239.2,133.3,272.56,133.3,306z"/>
	<path d="M304.19,233.81c0,15.66,0.12,31.33-0.02,46.99c-0.28,30.77-21.79,55.24-54.58,57.24c-4.15,0.25-8.33,0.03-12.49,0.17
		c-3.8,0.13-5.63-1.83-5.68-5.37c-0.1-7.66,0.03-15.33,0.01-23c-0.01-2.7,1.17-3.97,3.93-3.92c3.66,0.08,7.33,0.02,11,0.01
		c15.51-0.03,26.77-11.08,26.82-26.69c0.1-32.5,0.03-64.99,0.03-97.49c0-7.59,0.63-8.21,8.34-8.1c5,0.07,10,0.14,14.99,0.28
		c5.78,0.16,7.81,2.16,7.83,7.89c0.04,17.33,0.02,34.66,0.02,51.99C304.31,233.81,304.25,233.81,304.19,233.81z"/>
	<path d="M315.23,108.14c0.09,15.67-12.58,27.95-28.79,27.91c-14.24-0.03-26.34-12.4-26.42-27c-0.09-17.15,11.83-29.83,27.97-29.77
		C302.49,79.33,315.15,92.75,315.23,108.14z"/>
	<path d="M315.29,403.96c-0.06,15.11-12.74,27.02-28.75,26.73c-15.49-0.28-27.29-13.95-26.62-28.86
		c0.65-14.37,13.19-26.98,27.91-26.85C303.03,375.1,315.35,388.1,315.29,403.96z"/>
	<path d="M535.59,239.65c7.5,0,15-0.09,22.49,0.02c9.61,0.14,15.85,6.48,15.97,16.02c0.1,8.03-6.58,14.94-15.45,15.08
		c-15.99,0.25-31.99,0.17-47.98-0.05c-7.73-0.11-13.99-7.21-13.73-14.86c0.31-9.11,6.67-16.19,14.71-16.25
		c8-0.06,15.99-0.01,23.99-0.01C535.59,239.62,535.59,239.63,535.59,239.65z"/>
	<path d="M39.02,239.76c7.99,0,15.98-0.2,23.95,0.05c8.47,0.27,14.7,6.81,14.82,15.03c0.12,8.72-6.25,15.74-15.09,15.88
		c-15.97,0.25-31.95,0.01-47.92,0.17c-6.88,0.07-14.47-8.65-13.78-15.97c0.75-8.02,6.6-15.2,14.07-15.3
		c7.99-0.11,15.97-0.02,23.96-0.02C39.02,239.64,39.02,239.7,39.02,239.76z"/>
</g>
</svg>
