<svg width="110" height="101" viewBox="0 0 110 101" fill="none" xmlns="http://www.w3.org/2000/svg">
<path d="M88.1355 66.1595H41.5451C38.3951 66.158 35.3428 65.0661 32.9067 63.0692C30.4707 61.0722 28.801 58.2935 28.1816 55.2051L18.9998 9.34187H4.54541C3.33989 9.34187 2.18375 8.86298 1.33132 8.01055C0.47889 7.15812 0 6.00198 0 4.79646C0 3.59094 0.47889 2.4348 1.33132 1.58237C2.18375 0.729938 3.33989 0.251047 4.54541 0.251047H22.7271C23.7904 0.229602 24.8277 0.58174 25.6582 1.24616C26.4887 1.91059 27.06 2.84522 27.2725 3.88738L37.0906 53.4324C37.3031 54.4745 37.8743 55.4092 38.7048 56.0736C39.5354 56.738 40.5726 57.0901 41.636 57.0687H88.1355C89.1926 57.0922 90.2247 56.7465 91.0544 56.0911C91.884 55.4357 92.4592 54.5116 92.6809 53.4778L99.9991 19.3872C100.143 18.716 100.134 18.0207 99.971 17.3537C99.8082 16.6867 99.4964 16.0652 99.059 15.5359C98.6216 15.0067 98.0699 14.5834 97.4455 14.2978C96.8211 14.0123 96.1401 13.8719 95.4537 13.8873H90.9082C89.7027 13.8873 88.5466 13.4084 87.6941 12.556C86.8417 11.7035 86.3628 10.5474 86.3628 9.34187C86.3628 8.13635 86.8417 6.98021 87.6941 6.12778C88.5466 5.27535 89.7027 4.79646 90.9082 4.79646H95.4537C97.5177 4.74881 99.5657 5.17048 101.443 6.02967C103.32 6.88885 104.978 8.16312 106.291 9.75636C107.604 11.3496 108.539 13.2202 109.023 15.2271C109.508 17.234 109.531 19.3248 109.09 21.3418L101.681 55.4324C101.009 58.5097 99.2932 61.2596 96.824 63.2151C94.3548 65.1706 91.2848 66.2109 88.1355 66.1595ZM45.4541 100.25C42.7571 100.25 40.1207 99.4504 37.8782 97.952C35.6358 96.4536 33.888 94.3239 32.8559 91.8323C31.8238 89.3406 31.5537 86.5988 32.0799 83.9536C32.6061 81.3084 33.9048 78.8787 35.8118 76.9716C37.7189 75.0645 40.1487 73.7658 42.7938 73.2397C45.439 72.7135 48.1808 72.9836 50.6725 74.0156C53.1642 75.0477 55.2939 76.7955 56.7922 79.038C58.2906 81.2805 59.0904 83.9169 59.0904 86.6139C59.0904 90.2304 57.6537 93.6989 55.0964 96.2562C52.5391 98.8135 49.0707 100.25 45.4541 100.25ZM45.4541 82.0685C44.5551 82.0685 43.6763 82.3351 42.9288 82.8345C42.1813 83.334 41.5987 84.0439 41.2547 84.8744C40.9107 85.705 40.8207 86.6189 40.996 87.5007C41.1714 88.3824 41.6043 89.1923 42.24 89.828C42.8757 90.4637 43.6856 90.8966 44.5674 91.072C45.4491 91.2473 46.363 91.1573 47.1936 90.8133C48.0241 90.4693 48.734 89.8867 49.2335 89.1392C49.7329 88.3917 49.9995 87.5129 49.9995 86.6139C49.9995 85.4084 49.5206 84.2522 48.6682 83.3998C47.8158 82.5474 46.6596 82.0685 45.4541 82.0685ZM86.3628 100.25C83.6658 100.25 81.0294 99.4504 78.7869 97.952C76.5445 96.4536 74.7967 94.3239 73.7646 91.8323C72.7325 89.3406 72.4625 86.5988 72.9886 83.9536C73.5148 81.3084 74.8135 78.8787 76.7206 76.9716C78.6276 75.0645 81.0574 73.7658 83.7025 73.2397C86.3477 72.7135 89.0895 72.9836 91.5812 74.0156C94.0729 75.0477 96.2026 76.7955 97.7009 79.038C99.1993 81.2805 99.9991 83.9169 99.9991 86.6139C99.9991 90.2304 98.5624 93.6989 96.0051 96.2562C93.4478 98.8135 89.9794 100.25 86.3628 100.25ZM86.3628 82.0685C85.4638 82.0685 84.585 82.3351 83.8375 82.8345C83.09 83.334 82.5074 84.0439 82.1634 84.8744C81.8194 85.705 81.7294 86.6189 81.9048 87.5007C82.0801 88.3824 82.513 89.1923 83.1487 89.828C83.7844 90.4637 84.5943 90.8966 85.4761 91.072C86.3578 91.2473 87.2717 91.1573 88.1023 90.8133C88.9328 90.4693 89.6427 89.8867 90.1422 89.1392C90.6417 88.3917 90.9082 87.5129 90.9082 86.6139C90.9082 85.4084 90.4294 84.2522 89.5769 83.3998C88.7245 82.5474 87.5683 82.0685 86.3628 82.0685Z" fill="black"/>
<path d="M77.272 32.0691H49.9995C48.794 32.0691 47.6379 31.5902 46.7854 30.7378C45.933 29.8853 45.4541 28.7292 45.4541 27.5237C45.4541 26.3182 45.933 25.162 46.7854 24.3096C47.6379 23.4572 48.794 22.9783 49.9995 22.9783H77.272C78.4775 22.9783 79.6337 23.4572 80.4861 24.3096C81.3385 25.162 81.8174 26.3182 81.8174 27.5237C81.8174 28.7292 81.3385 29.8853 80.4861 30.7378C79.6337 31.5902 78.4775 32.0691 77.272 32.0691Z" fill="black"/>
<path d="M63.6357 45.7053C62.4302 45.7053 61.2741 45.2264 60.4216 44.374C59.5692 43.5216 59.0903 42.3654 59.0903 41.1599V13.8875C59.0903 12.6819 59.5692 11.5258 60.4216 10.6734C61.2741 9.82093 62.4302 9.34204 63.6357 9.34204C64.8413 9.34204 65.9974 9.82093 66.8498 10.6734C67.7023 11.5258 68.1812 12.6819 68.1812 13.8875V41.1599C68.1812 42.3654 67.7023 43.5216 66.8498 44.374C65.9974 45.2264 64.8413 45.7053 63.6357 45.7053Z" fill="black"/>
</svg>
